<svg width="24" height="24" viewBox="0 0 24 24" fill="none" xmlns="http://www.w3.org/2000/svg">
<path fill-rule="evenodd" clip-rule="evenodd" d="M7.78172 3.24175C7.59774 3.08353 7.36249 2.9976 7.11984 2.99999L7.11 3.00008V3.00004H4.11062C3.9719 3.00021 3.83473 3.02925 3.70784 3.0853C3.58084 3.14139 3.46692 3.22331 3.37332 3.32585C3.27973 3.42838 3.2085 3.54928 3.16419 3.68085C3.12058 3.81033 3.10397 3.94736 3.11537 4.08347C3.42811 7.01503 4.4263 9.83191 6.02928 12.3063L6.03404 12.3137L6.03401 12.3137C7.49061 14.606 9.43405 16.5494 11.7263 18.006L11.7341 18.011L11.7341 18.011C14.1969 19.6082 16.9997 20.606 19.9176 20.9248C20.0538 20.936 20.1909 20.9192 20.3204 20.8754C20.4523 20.8308 20.5734 20.7592 20.676 20.665C20.7787 20.5709 20.8605 20.4564 20.9163 20.3288C20.972 20.2012 21.0006 20.0633 21 19.9241L21 19.92V16.92C21 16.9118 21.0001 16.9035 21.0003 16.8952C21.0064 16.65 20.9221 16.4111 20.7636 16.224C20.6058 16.0378 20.3854 15.9157 20.1439 15.8807C19.1109 15.7441 18.0966 15.4912 17.1204 15.1269L17.1181 15.1261C16.9392 15.0588 16.7447 15.0443 16.5577 15.0841C16.3715 15.1239 16.2005 15.2159 16.0648 15.3495L14.7971 16.6171C14.4788 16.9355 13.987 17.0018 13.5957 16.7793C10.9357 15.2668 8.73323 13.0643 7.2207 10.4043C6.99819 10.013 7.06458 9.52124 7.38289 9.20293L8.65053 7.93529C8.78411 7.7996 8.87618 7.62858 8.9159 7.44234C8.95578 7.25535 8.94122 7.06086 8.87395 6.8819L8.8731 6.87964C8.50883 5.90343 8.25596 4.88922 8.11931 3.85627C8.08464 3.61744 7.96476 3.39916 7.78172 3.24175ZM7.10557 1.00004C7.83161 0.994199 8.53521 1.25188 9.0858 1.72538C9.63775 2.20006 9.99827 2.85925 10.1002 3.58008L10.1015 3.58927L10.1014 3.58928C10.2181 4.47421 10.4345 5.34309 10.7465 6.17939C10.9479 6.71594 10.9915 7.29897 10.8719 7.8595C10.7523 8.42044 10.4743 8.93534 10.0711 9.34318L10.0671 9.34715L10.0671 9.34714L9.35001 10.0642C10.5259 11.9089 12.0912 13.4742 13.9358 14.65L14.6529 13.9329L14.6569 13.929C15.0647 13.5257 15.5796 13.2478 16.1405 13.1281C16.7011 13.0086 17.2841 13.0521 17.8206 13.2535C18.6569 13.5655 19.5258 13.7819 20.4108 13.8986L20.4197 13.8998L20.4197 13.8998C21.1483 14.0026 21.8138 14.3696 22.2895 14.9311C22.7623 15.4891 23.0148 16.2004 23 16.9312V19.918" fill="#69B99D"/>
</svg>
